
<svg xmlns="http://www.w3.org/2000/svg" version="1.1" xmlns:xlink="http://www.w3.org/1999/xlink" preserveAspectRatio="none" x="0px" y="0px" width="210px" height="60px" viewBox="0 0 210 60">
<defs>
<g id="Layer0_0_MEMBER_0_FILL">
<path fill="#766436" stroke="none" d="
M 244.95 72.35
Q 248.25 69 248.25 64.3 248.25 58.6 243.1 55.2 237.9 51.7 229.1 51.7
L 207.55 51.7 207.55 53.05 215.35 53.05 215.35 104.95 207.55 104.95 207.55 106.3 231.9 106.3
Q 240.45 106.3 245.6 102.65 251 98.8 251 92 251 85.45 246 81.5 241 77.6 232.4 77.25 232.5 77.2 232.4 77.2 240.8 76.55 244.95 72.35
M 229 53.05
Q 235.6 53.05 238.75 56.05 241.7 58.9 241.7 64.55 241.7 73.65 234.1 75.8 231.2 76.65 224.6 76.65
L 221.65 76.65 221.65 53.05 229 53.05
M 225.95 77.95
Q 230.35 77.95 232.05 78.15 238.6 78.95 241.6 82.8 244.15 86.15 244.15 92 244.15 98.6 241.05 101.7 237.85 104.95 231 104.95
L 221.65 104.95 221.65 77.95 225.95 77.95 Z"/>
</g>

<g id="Layer0_0_MEMBER_1_FILL">
<path fill="#766436" stroke="none" d="
M 347.85 51.45
L 347.85 52.8 348.3 52.8
Q 353.2 52.8 355.05 55.9 356.75 58.75 356.75 66.05
L 356.75 86.15
Q 356.75 106.1 340.2 106.1 332.85 106.1 329.4 101.8 325.95 97.4 325.95 87.85
L 325.95 52.8 333.6 52.8 333.6 51.45 311.9 51.45 311.9 52.8 319.7 52.8 319.7 86.35
Q 319.7 97.55 324.9 102.8 329.6 107.55 338.95 107.55 348.35 107.55 353 102.75 358.1 97.45 358.1 86.05
L 358.1 66.05
Q 358.1 58.85 359.95 55.9 361.85 52.8 366.65 52.8
L 367.1 52.8 367.1 51.45 347.85 51.45 Z"/>
</g>

<g id="Layer0_0_MEMBER_2_FILL">
<path fill="#766436" stroke="none" d="
M 405.6 69.95
L 405 50 403.8 50
Q 403.7 52.05 402.45 53.6 401.2 55.1 399.55 55.35 394.4 50 386.55 50 380.25 50 376.05 53.65 371.55 57.6 371.55 64.05 371.55 70.2 375.6 74.1 379.05 77.5 387.25 80.65 396.45 84.15 399.55 86.55 403.55 89.7 403.55 94.8 403.55 99.9 399.85 103.05 396.2 106.2 390.4 106.2 382.95 106.2 377.75 101.3 372.1 96 371.55 86.95
L 370.2 87 371.05 107.3 372.25 107.3
Q 372.45 105.1 373.75 103.65 374.95 102.25 376.75 102.05 379.15 104.55 382.45 105.95 386.15 107.55 390.5 107.55 397.65 107.55 402.45 103.45 407.55 99.05 407.55 91.75 407.55 85.3 403 81.25 399.35 77.95 389.4 73.9 382.15 70.95 379.2 68.6 375.15 65.35 375.15 60.65 375.15 56.25 378.5 53.65 381.55 51.3 386.3 51.3 393.75 51.3 398.7 56.4 403.75 61.55 404.35 70.05
L 405.6 69.95 Z"/>
</g>

<g id="Layer0_0_MEMBER_3_FILL">
<path fill="#981E1A" stroke="none" d="
M 273.2 97.85
Q 273.25 97.95 273.35 97.95
L 276.8 97
Q 279 96.45 279.45 96.3 280.9 95.7 281.35 94.5 281.75 93.5 281.4 92.45 281.1 91.4 280.2 90.8 279 90 277.6 90.4 277.25 88.9 275.85 88.3 275.05 87.95 274.15 88.1 273.25 88.2 272.6 88.8 271.15 89.95 271.6 91.85
L 273.2 97.85 Z"/>
</g>

<g id="Layer0_0_MEMBER_4_FILL">
<path fill="#766436" stroke="none" d="
M 275.9 72.35
Q 277.75 73.45 279.7 73.35 280.8 73.35 281.9 72.95
L 282.1 72.05
Q 279.15 72.05 276.8 70.65 274.5 69.3 273 66.85
L 272.3 67.5
Q 272.6 69.3 274 70.85 274.8 71.7 275.9 72.35 Z"/>
</g>

<g id="Layer0_0_MEMBER_5_FILL">
<path fill="#766436" stroke="none" d="
M 295.1 81.25
Q 292.75 79.9 291.3 77.4
L 290.6 78.05
Q 290.9 79.85 292.3 81.4 293.2 82.4 294.2 82.95 296.05 83.95 298 83.95 299.15 83.95 300.2 83.55
L 300.4 82.6
Q 297.5 82.6 295.1 81.25 Z"/>
</g>

<g id="Layer0_0_MEMBER_6_FILL">
<path fill="#766436" stroke="none" d="
M 278.2 51.85
Q 267.65 55.95 261.95 65.8 256.25 75.65 258 86.9 259.85 98.9 269.5 104.45 279.2 110.05 290.5 105.65 301.05 101.55 306.75 91.65 312.45 81.8 310.7 70.65 308.9 58.65 299.2 53.05 289.5 47.45 278.2 51.85
M 262.15 88.3
Q 262.2 79.45 268.05 69.35 271 64.2 274.75 60.25 279 58.5 283 60.8 286.25 62.7 287.3 66.3 288.4 69.9 286.7 73.25
L 280.15 84.6 281.4 85.3 287.9 73.95
Q 290 70.85 293.65 69.95 297.35 69.1 300.55 70.95 302.45 72.05 303.65 73.85 304.85 75.65 305.15 77.8 303.6 83 300.65 88.15 294.75 98.3 287.2 102.8 278.35 108 270.2 103.3 262.05 98.6 262.15 88.3
M 288.95 70.75
Q 289.5 67.45 288.1 64.4 286.65 61.3 283.7 59.6 280.45 57.7 276.8 58.25 281.95 53.6 287.2 52.45 293.1 51.1 298.5 54.25 304 57.4 305.75 63.15 307.35 68.3 305.9 75.05 304.5 71.6 301.25 69.7 298.3 68 294.9 68.3 291.55 68.6 288.95 70.75 Z"/>
</g>
</defs>

<g transform="matrix( 1, 0, 0, 1, -202.55,-48.75) ">
<use xlink:href="#Layer0_0_MEMBER_0_FILL"/>
</g>

<g transform="matrix( 1, 0, 0, 1, -202.55,-48.75) ">
<use xlink:href="#Layer0_0_MEMBER_1_FILL"/>
</g>

<g transform="matrix( 1, 0, 0, 1, -202.55,-48.75) ">
<use xlink:href="#Layer0_0_MEMBER_2_FILL"/>
</g>

<g transform="matrix( 1, 0, 0, 1, -202.55,-48.75) ">
<use xlink:href="#Layer0_0_MEMBER_3_FILL"/>
</g>

<g transform="matrix( 1, 0, 0, 1, -202.55,-48.75) ">
<use xlink:href="#Layer0_0_MEMBER_4_FILL"/>
</g>

<g transform="matrix( 1, 0, 0, 1, -202.55,-48.75) ">
<use xlink:href="#Layer0_0_MEMBER_5_FILL"/>
</g>

<g transform="matrix( 1, 0, 0, 1, -202.55,-48.75) ">
<use xlink:href="#Layer0_0_MEMBER_6_FILL"/>
</g>
</svg>
